<svg xmlns="http://www.w3.org/2000/svg" width="190.951" height="57.73" viewBox="0 0 190.951 57.73">
  <g id="Layer_2" data-name="Layer 2" transform="translate(0 0.015)">
    <g id="Layer_1" data-name="Layer 1">
      <path id="Path_16" data-name="Path 16" d="M41.69,43.31c0-4-2.24-6.12-5.62-6.12s-5.67,2.1-5.67,6.12v14H24v-14c0-4-2.24-6.12-5.62-6.12s-5.7,2.1-5.7,6.12v14H6.29V32h6.4v3.06a9.2,9.2,0,0,1,7.44-3.43c3.93,0,7.17,1.69,8.9,4.84a10,10,0,0,1,8.68-4.84c6.08,0,10.37,3.84,10.37,10.82V57.29H41.69Z" fill="#00adee"/>
      <path id="Path_17" data-name="Path 17" d="M61.78,31.57a10,10,0,0,1,8.36,4V32h6.44V57.3H70.14V53.6a10,10,0,0,1-8.41,4.11c-6.39,0-11.51-5.25-11.51-13.15S55.34,31.57,61.78,31.57Zm1.64,5.62c-3.42,0-6.66,2.56-6.66,7.36s3.24,7.53,6.66,7.53,6.72-2.65,6.72-7.44S66.94,37.19,63.42,37.19Z" fill="#00adee"/>
      <path id="Path_18" data-name="Path 18" d="M90.23,57.7c-6.35,0-10.78-3.7-11-8.41h6.44c.23,1.92,2,3.38,4.56,3.38s3.89-1.14,3.89-2.6c0-4.52-14.3-1.64-14.3-10.91,0-4.21,3.75-7.59,10-7.59s9.82,3.34,10.19,8.36H93.84c-.19-2-1.74-3.29-4.25-3.29S86,37.6,86,39.06c0,4.62,14,1.74,14.21,11C100.19,54.41,96.4,57.7,90.23,57.7Z" fill="#00adee"/>
      <path id="Path_19" data-name="Path 19" d="M112.84,57.7c-6.35,0-10.78-3.7-11.06-8.41h6.44c.23,1.92,2,3.38,4.57,3.38s3.88-1.14,3.88-2.6c0-4.52-14.29-1.64-14.29-10.91,0-4.21,3.74-7.59,10-7.59s9.82,3.34,10.18,8.36h-6.12c-.18-2-1.73-3.29-4.24-3.29s-3.61,1-3.61,2.42c0,4.62,14,1.74,14.2,11C122.79,54.41,119,57.7,112.84,57.7Z" fill="#fff"/>
      <path id="Path_20" data-name="Path 20" d="M161.15,43.31c0-4-2.23-6.12-5.61-6.12s-5.67,2.1-5.67,6.12v14h-6.39v-14c0-4-2.24-6.12-5.62-6.12s-5.71,2.1-5.71,6.12v14h-6.39V32h6.39v3.06a9.23,9.23,0,0,1,7.45-3.43c3.93,0,7.17,1.69,8.9,4.84a10,10,0,0,1,8.68-4.84c6.07,0,10.37,3.84,10.37,10.82V57.29h-6.4Z" fill="#fff"/>
      <path id="Path_21" data-name="Path 21" d="M181,57.7c-6.35,0-10.78-3.7-11.05-8.41h6.44c.22,1.92,2,3.38,4.56,3.38s3.88-1.14,3.88-2.6c0-4.52-14.29-1.64-14.29-10.91,0-4.21,3.74-7.59,10-7.59s9.82,3.34,10.19,8.36h-6.12c-.19-2-1.74-3.29-4.25-3.29s-3.61,1-3.61,2.42c0,4.62,14,1.74,14.2,11C191,54.41,187.18,57.7,181,57.7Z" fill="#fff"/>
      <circle id="Ellipse_1" data-name="Ellipse 1" cx="3.99" cy="3.99" r="3.99" transform="translate(18.686 14.182) rotate(-76.72)" fill="#fff"/>
      <rect id="Rectangle_1" data-name="Rectangle 1" width="6.82" height="11.49" rx="2.64" transform="translate(0 17.32)" fill="#fff"/>
      <rect id="Rectangle_2" data-name="Rectangle 2" width="6.82" height="11.49" rx="2.64" transform="translate(40.04 17.32)" fill="#fff"/>
      <rect id="Rectangle_3" data-name="Rectangle 3" width="40.94" height="25.86" rx="11.01" transform="translate(3.05 10.14)" fill="#00adee"/>
      <path id="Path_22" data-name="Path 22" d="M38.17,17.21a8.18,8.18,0,0,0-6-3.39H14.88a8.18,8.18,0,0,0-6,3.39A8.82,8.82,0,0,0,7,22.68H7c0,4,2.06,7.81,5.48,8.72,4.12,1.1,7-3.59,11-3.59h0c4,0,6.9,4.69,11,3.59,3.42-.91,5.52-4.69,5.47-8.72h0A8.75,8.75,0,0,0,38.17,17.21Z" fill="#fff"/>
      <path id="Path_23" data-name="Path 23" d="M7.05,23.34a8.78,8.78,0,0,1,1.86-5,8.18,8.18,0,0,1,6-3.39H32.2a8.18,8.18,0,0,1,6,3.39,8.78,8.78,0,0,1,1.86,5q0-.315,0-.63h0a8.75,8.75,0,0,0-1.87-5.47,8.18,8.18,0,0,0-6-3.39H14.88a8.18,8.18,0,0,0-6,3.39A8.82,8.82,0,0,0,7,22.68H7A2.809,2.809,0,0,0,7.05,23.34Z" fill="#eee"/>
      <path id="Path_24" data-name="Path 24" d="M4.49,25V21.15a11,11,0,0,1,11-11H14.06a11,11,0,0,0-11,11V25a11,11,0,0,0,11,11H15.5A11,11,0,0,1,4.49,25Z" fill="#fff"/>
      <circle id="Ellipse_2" data-name="Ellipse 2" cx="3.51" cy="3.51" r="3.51" transform="translate(10.116 21.15) rotate(-22.5)" fill="#2a1844"/>
      <path id="Path_25" data-name="Path 25" d="M18.15,21.56a1.51,1.51,0,1,1-1.51-1.51,1.51,1.51,0,0,1,1.51,1.51Z" fill="#fff"/>
      <circle id="Ellipse_3" data-name="Ellipse 3" cx="3.51" cy="3.51" r="3.51" transform="translate(27.832 24.947) rotate(-67.5)" fill="#2a1844"/>
      <path id="Path_26" data-name="Path 26" d="M35.86,21.56a1.51,1.51,0,1,1-1.51-1.51,1.51,1.51,0,0,1,1.51,1.51Z" fill="#fff"/>
      <path id="Path_27" data-name="Path 27" d="M20.37,32.65a.8.8,0,1,1-.8-.8.8.8,0,0,1,.8.8Z" fill="#fff"/>
      <path id="Path_28" data-name="Path 28" d="M26.67,32.65a.8.8,0,1,0,.231-.572.8.8,0,0,0-.231.572Z" fill="#fff"/>
      <path id="Path_29" data-name="Path 29" d="M24.74,32.65a1.22,1.22,0,1,1-1.22-1.22A1.22,1.22,0,0,1,24.74,32.65Z" fill="#fff"/>
      <path id="Path_30" data-name="Path 30" d="M26.94,35.1v4.69a.51.51,0,0,0,.76.46l10.41-5.57Z" fill="#00adee"/>
      <rect id="Rectangle_4" data-name="Rectangle 4" width="1.08" height="5.75" transform="translate(22.99 2.78)" fill="#fff"/>
      <path id="Path_31" data-name="Path 31" d="M21,2.83A2.54,2.54,0,1,0,21.53.948,2.53,2.53,0,0,0,21,2.83Z" fill="#00adee"/>
    </g>
  </g>
</svg>
